<svg xmlns="http://www.w3.org/2000/svg" viewBox="0 0 139.86 278.61"><defs><style>.cls-1{fill:#fff;}</style></defs><title>01blanc</title><g id="Calque_2" data-name="Calque 2"><g id="Calque_1-2" data-name="Calque 1"><path class="cls-1" d="M139.86,181.83H117.23c.8,6.49,1.78,12.65,2.29,18.85,1.1,13.55.11,27-4.14,40-7.62,23.36-25.09,37-49.61,37.9a89.41,89.41,0,0,1-25.18-2.43c-20.36-5.24-31.85-19.77-37-39.44a106.1,106.1,0,0,1,.54-56.76c7-24.61,25.58-38.91,51.23-40,15.51-.68,30.15,1.86,43.33,12V34.65H62.56V0h77.3ZM31.06,209.14c1.41,9,2.09,18,4.34,26.64,3.34,12.83,12.08,19,24.78,19,12.42,0,21-6.07,24.54-18.7a97.46,97.46,0,0,0,0-53.76c-3.56-12.54-12.16-18.53-24.7-18.47S38.78,170,35.46,182.52C33.18,191.12,32.49,200.15,31.06,209.14Z"/></g></g></svg>