<svg xmlns="http://www.w3.org/2000/svg" viewBox="0 0 216.25 288.29"><defs><style>.cls-1{fill:#fff;}</style></defs><title>Fichier 1</title><g id="Calque_2" data-name="Calque 2"><g id="Calque_1-2" data-name="Calque 1"><path class="cls-1" d="M136.08,145.27h80.17v33H108c2.4,8.77,5.42,17,6.83,25.56,2.68,16.11,2.06,32.24-3.09,47.91-7.33,22.3-23.87,35.36-47.32,36.47A86.29,86.29,0,0,1,39.65,286C21.31,281.38,10,268.72,4.55,251a101.29,101.29,0,0,1-.28-59.1c7.05-24,25.11-37.9,50.13-38.19,9.66-.11,19.35,1.68,29.35,2.64-1.45-5.85,3.82-9.05,7.64-13,19.68-20.37,39.62-40.5,59-61.12A97.42,97.42,0,0,0,165.71,61.4c7.12-13.43.27-25-14.86-27-12.59-1.63-24.2,1.56-35,7.54-7.1,3.91-13.75,8.63-21,13.27L79.46,26.17c15-11.34,31.17-19.9,49.56-23.74,17.44-3.64,34.81-3.63,51.59,3.08C196.86,12,208,23.06,210,41.34c1.08,9.95-1.62,19.15-6.32,27.81C196,83.2,185.53,95,174.39,106.32c-11.34,11.51-22.78,22.93-34.16,34.41C139.09,141.88,138.05,143.11,136.08,145.27ZM86.57,221c-1.66-9.42-2.52-18.76-5.07-27.61C78.18,181.85,70,176.53,58.4,176.52S38.4,181.78,35,193a92.78,92.78,0,0,0,.1,56c3.55,11.26,11.8,16.46,23.52,16.4,11.34-.06,19.47-5.29,22.77-16.58C84,239.86,84.88,230.36,86.57,221Z"/></g></g></svg>