<svg xmlns="http://www.w3.org/2000/svg" viewBox="0 0 205.22 289.73"><defs><style>.cls-1{fill:#fff;}</style></defs><title>03blanc</title><g id="Calque_2" data-name="Calque 2"><g id="Calque_1-2" data-name="Calque 1"><path class="cls-1" d="M196.28,0c0,7.69.18,14.85-.14,22-.07,1.66-1.56,3.54-2.89,4.81q-21.92,20.84-44,41.5c-1.21,1.13-2.56,2.11-4.87,4,5.86,1,10.36,1.58,14.78,2.5a85.38,85.38,0,0,1,12,3.16c17.29,6.39,30.22,17.07,33.22,36.37,3.16,20.38-3,37.73-19.19,50.65-17.7,14.12-38.67,16.86-60.49,15.44-5.44-.36-10.85-1.27-15.41-1.82,2.44,9.26,5.81,18.65,7.24,28.33,2.22,15.08,1.63,30.25-3.06,45-7.37,23.11-24.39,36.72-48.57,37.73a87.69,87.69,0,0,1-25.19-2.38c-19.81-5.08-31.07-19.21-36.17-38.34a104.13,104.13,0,0,1,.06-54.37c6.85-25.73,26.13-40.68,53.17-40.35,8.49.11,13.53-1.88,16.32-10.07,1.64-4.82,4.62-9.17,7.22-14.14,1.94,1.4,3.6,2.64,5.3,3.82,18.22,12.63,38.06,18.26,60,13,13.44-3.21,20.16-12.22,19.7-25.09-.27-7.79-3.47-14.36-10.56-17.4a66.2,66.2,0,0,0-20.52-5.23c-10.74-.85-21.59-.22-33.1-.22,0-7.72-.14-15,.13-22.23.05-1.34,1.61-2.78,2.75-3.88q18.47-18,37.05-35.77a25.62,25.62,0,0,1,4.1-2.68l-1.05-1.76h-70V0ZM87.47,222c-1.47-9-2.21-18.4-4.61-27.29C79.67,182.83,71.07,177,59.27,177c-12.27,0-20.61,5.59-24.18,17.6a94.87,94.87,0,0,0-.17,54.12c3.59,12.45,11.93,18.23,24.27,18.2,12.17,0,20.57-6,23.9-18.6C85.33,239.87,86,231,87.47,222Z"/></g></g></svg>