<svg xmlns="http://www.w3.org/2000/svg" viewBox="0 0 196.72 266.61"><defs><style>.cls-1{fill:#fff;}</style></defs><title>04blanc</title><g id="Calque_2" data-name="Calque 2"><g id="Calque_1-2" data-name="Calque 1"><path class="cls-1" d="M145.29.1c-17.27,35.69-34,70.37-51.08,105.54h41.14V66.94h37v38.87h24.41v32.72h-24.2v40H135.61V139H93c.08.41,0,.82.2.94,12.84,9.36,19.62,22.33,22.37,37.65,3.07,17.12,3,34.17-2.14,50.91-7.08,23.16-24.12,36.86-48.3,38a87.78,87.78,0,0,1-25.2-2.31c-18.74-4.71-30.11-17.74-35.51-35.86a101.92,101.92,0,0,1-.27-58.14c6.36-22.14,20.91-35.38,44-38.62.83-.12,1.65-.27,2.46-.46a14.16,14.16,0,0,0,1.54-.55,22.51,22.51,0,0,0,.15-3.93c-1.52-11.74,2.34-21.92,7.66-32.25,15.3-29.73,29.92-59.81,44.66-89.82C106.21,1.31,108-.09,111.77,0,122.56.28,133.37.1,145.29.1ZM86.91,201.27c-.72-8.43-1.09-14.41-1.79-20.36a48.19,48.19,0,0,0-2-8.74c-3.91-12.36-12-18.39-24.27-18.33s-20.68,6-24.13,18.48a97.5,97.5,0,0,0,0,52.82c3.52,12.69,12,18.69,24.53,18.63C71.34,243.71,79.73,237.64,83,225,85.25,216.53,85.91,207.67,86.91,201.27Z"/></g></g></svg>