<svg xmlns="http://www.w3.org/2000/svg" viewBox="0 0 54.04 54.04"><defs><style>.cls-1{fill:#7ed3db;stroke:#7ed3db;stroke-miterlimit:10;}</style></defs><title>nextBlue</title><g id="Calque_2" data-name="Calque 2"><g id="Calque_1-2" data-name="Calque 1"><g id="Calque_2-2" data-name="Calque 2"><g id="Calque_1-2-2" data-name="Calque 1-2"><path class="cls-1" d="M12.88,28h25l-9.37,8.49a1.26,1.26,0,1,0,1.68,1.88h0L42.05,27.62h0l.07-.07.12-.16h0a1.66,1.66,0,0,0,.12-.31V27a1.61,1.61,0,0,0,0-.31h0a2.72,2.72,0,0,0-.07-.33h0a1.46,1.46,0,0,0-.17-.3h0L42,25.92,30.41,15.71a1.27,1.27,0,1,0-1.73,1.85l.08.06,9,7.81H12.88a1.26,1.26,0,0,0,0,2.52Z"/><path class="cls-1" d="M27,53.54A26.52,26.52,0,1,0,.5,27,26.52,26.52,0,0,0,27,53.54ZM27,3A24,24,0,1,1,3,27,24,24,0,0,1,27,3Z"/></g></g></g></g></svg>