<svg xmlns="http://www.w3.org/2000/svg" viewBox="0 0 67.2 67.2"><title>next</title><g id="Calque_2" data-name="Calque 2"><g id="Calque_1-2" data-name="Calque 1"><path d="M15.69,34.78H47.36L35.49,45.53a1.6,1.6,0,1,0,2.15,2.37l15-13.54,0,0,.09-.09a1.49,1.49,0,0,0,.15-.2l0,0a1.56,1.56,0,0,0,.15-.39.37.37,0,0,0,0-.09,1.87,1.87,0,0,0,0-.4v0a2.1,2.1,0,0,0-.09-.42.07.07,0,0,1,0,0l0,0a1.53,1.53,0,0,0-.21-.37l0,0a1.62,1.62,0,0,0-.18-.19L37.89,19.27a1.6,1.6,0,1,0-2.09,2.42l11.42,9.89H15.69a1.6,1.6,0,1,0,0,3.2Z"/><path d="M33.6,67.2A33.6,33.6,0,1,0,0,33.6,33.63,33.63,0,0,0,33.6,67.2Zm0-64A30.4,30.4,0,1,1,3.2,33.6,30.44,30.44,0,0,1,33.6,3.2Z"/></g></g></svg>